<svg width="199" height="196" viewBox="0 0 199 196" fill="none" xmlns="http://www.w3.org/2000/svg">
<path d="M6.05196 10.2316C6.38221 11.3118 7.35426 12.7678 8.25385 13.3959C9.47568 14.3394 10.4304 14.1383 12.3264 12.4614C14.2855 10.7202 14.597 10.0158 13.9405 8.23782C13.3512 6.77786 12.4489 5.89481 10.976 5.33637C8.28655 4.34432 5.12965 7.43655 6.05196 10.2316ZM10.3622 7.6374C11.1316 8.0119 11.4592 8.83715 11.149 9.66899C10.401 11.334 9.25295 11.3459 8.40578 9.63362C7.68617 7.92004 8.63284 6.95413 10.3622 7.6374Z" fill="white"/>
<path d="M19.9392 20.6691C20.2641 21.2394 22.0806 24.1527 24.0261 27.1922C25.9071 30.1686 28.893 35.1095 30.5189 38.0886L33.6378 43.5381L30.2445 48.4175C22.7676 59.2671 19.4802 68.1611 17.0369 84.5679L15.7233 93.1228L8.90892 94.1494C-2.61709 95.9896 -3.03082 99.1172 8.08549 100.787L15.6235 101.856L15.5924 104.98C15.4418 108.87 17.3279 118.412 19.4343 124.636C21.2091 129.654 28.694 143.918 32.1258 148.791C33.2254 150.245 34.0081 151.894 33.949 152.341C33.8899 152.788 30.6268 157.921 26.7326 163.698C17.5638 177.434 17.8753 176.729 20.8079 176.571C22.9119 176.486 34.9605 169.732 42.4303 164.301L45.1535 162.424L51.131 166.76C61.095 174.115 76.1453 179.887 89.9416 181.657L96.0094 182.423L96.5811 188.281C97.0843 193.694 97.9368 195.916 99.0097 194.821C99.4515 194.371 100.123 191.495 100.957 185.877L101.438 183.068L106.982 182.564C123.867 180.796 143.631 173.771 150.257 167.01L152.845 164.37L162.535 169.943C167.925 172.947 172.74 175.893 173.32 176.46C173.964 177.091 174.664 176.893 175.481 175.801C176.864 173.874 175.819 171.463 168.883 160.89L164.086 153.545L166.039 151.294C169.505 147.243 177.024 134.289 179.572 127.952C182.621 120.59 184.762 111.836 184.774 106.928L184.8 103.294L192.062 102.454C199.643 101.547 200.715 100.325 194.962 99.1096C193.172 98.7456 189.91 97.9507 187.863 97.3345L184.153 96.353L184.059 93.4856C183.575 77.7465 175.27 52.2084 168.568 45.6486C167.794 44.8917 167.273 43.8772 167.331 43.3029C167.453 42.7917 170.784 37.9767 174.745 32.5177C182.415 21.8574 183.916 19.0372 182.499 17.6496C180.887 16.0727 176.505 17.8391 164.778 24.9081L153.243 31.9115L151.309 30.0192C146.089 24.9102 126.475 15.8067 118.425 14.6151C116.574 14.4431 112.547 13.6561 109.542 12.986L104.108 11.8311L103.796 6.35258C103.555 1.70194 103.227 0.749225 101.563 0.256497C100.475 -0.0509625 99.3905 -0.103484 99.0749 0.218486C98.8225 0.476061 98.2181 3.66938 97.8097 7.30686L97.0494 13.8801L90.995 14.3889C82.0739 15.246 68.6572 19.273 57.6775 24.5496C52.3468 27.1543 47.3987 29.7551 46.5756 30.3373C45.3094 31.2428 43.58 30.5595 35.6192 25.67C30.3559 22.5374 25.0295 19.4691 23.6197 18.8463C21.1209 17.7886 19.0907 18.8294 19.9392 20.6691ZM35.2175 29.9448C35.7331 30.4494 35.9318 31.1485 35.5531 31.5349C35.2376 31.8569 34.4709 31.7373 33.9553 31.2327C33.4397 30.7281 33.3041 29.9646 33.6197 29.6427C33.9984 29.2563 34.7019 29.4402 35.2175 29.9448ZM51.7024 50.8728C61.8219 60.903 73.8132 73.0173 78.2654 77.8793L86.3938 86.5916L76.2562 87.0151C70.7081 87.1362 65.9226 86.9945 65.791 86.6134C62.6655 80.5266 55.8518 69.4423 47.8175 57.542C37.0605 41.463 31.7371 32.5942 32.6944 32.6481C33.0771 32.6441 41.5828 40.8425 51.7024 50.8728ZM38.6843 32.0762C39.071 32.4546 39.2697 33.1537 39.0844 33.7293C38.9622 34.2405 38.3888 34.3102 37.8732 33.8056C37.2932 33.2379 37.1576 32.4744 37.4732 32.1525C37.8519 31.7661 38.3621 31.7608 38.6843 32.0762ZM42.2329 35.9277C42.3174 37.9028 42.1912 38.0316 41.2245 37.0855C40.6445 36.5178 40.4431 35.5638 40.6915 34.9238C41.5026 33.1944 42.2089 33.6333 42.2329 35.9277ZM45.0379 35.7712C45.2957 36.0235 45.3077 37.1707 45.0646 38.3206C44.6993 39.9817 44.4469 40.2392 43.6735 39.4823C43.1579 38.9777 42.9566 38.0237 43.2695 37.4468C43.953 35.7187 44.4579 35.2036 45.0379 35.7712ZM48.0602 38.0984C48.1931 38.607 48.0803 40.0104 47.7083 41.0341C47.2772 42.5047 46.9603 42.6992 46.2514 42.0053C45.4136 41.1854 45.7816 39.7792 47.354 37.6595C47.6695 37.3376 47.8629 37.5268 48.0602 38.0984ZM38.5665 51.2635C42.969 57.4647 62.4154 87.0945 62.4852 87.6675C62.4879 87.9224 56.3086 88.6874 48.6618 89.4039C41.0794 90.1835 32.3517 91.2299 29.2311 91.7083C20.063 93.3329 20.1274 93.396 21.8224 84.7097C24.6093 70.6577 30.3931 56.5111 35.7549 50.7827C36.9527 49.4317 37.3998 49.4909 38.5665 51.2635ZM60.1532 29.4958C64.3386 27.1578 70.8818 24.6042 74.8268 23.6711C78.7087 22.8023 85.135 21.2698 89.0169 20.401L96.1441 18.7975L95.2172 27.7309C94.4058 35.5157 93.225 44.5792 91.3244 57.9845L90.8502 61.4314L83.4615 56.3448C79.4778 53.5814 72.8611 49.1242 68.8156 46.5526C60.4682 41.2847 53.5292 36.5121 52.3047 35.3136C51.2736 34.3044 51.4629 34.1113 60.1532 29.4958ZM51.1981 39.2771C51.7137 39.7817 51.9244 41.628 51.6249 43.4796C51.1467 46.5441 51.0205 46.6729 49.9249 45.6006C49.0226 44.7176 49.1732 40.8278 50.2341 38.5859C50.2327 38.4584 50.6825 38.7725 51.1981 39.2771ZM55.0516 41.7868C55.5672 42.2914 55.6517 44.2665 55.1615 46.1839C54.2482 50.3365 53.934 50.7859 52.645 49.5244C52.1295 49.0198 52.2356 46.979 52.8521 44.9329C54.1453 40.5214 53.956 40.7146 55.0516 41.7868ZM58.6473 44.0444C59.2918 44.6751 58.1595 52.272 57.339 53.1091C56.1399 54.3326 55.6056 52.0435 56.3967 48.402C57.2441 44.0589 57.6806 43.0982 58.6473 44.0444ZM62.0496 46.1126C62.4363 46.4911 62.3341 48.9143 61.7875 51.5334C60.5036 56.8372 60.3787 57.0934 59.2187 55.9581C58.5729 55.1998 59.7643 47.1561 60.8345 45.8065C61.0225 45.4858 61.5985 45.6711 62.0496 46.1126ZM56.2786 97.994C64.8908 98.0962 77.3298 98.1587 83.9642 98.2176C90.5986 98.2765 96.2138 98.4734 96.4072 98.6626C96.6649 98.9149 94.7756 101.229 92.2512 103.805L87.7071 108.441L80.2336 107.435C76.0819 106.904 68.9266 105.831 64.1345 105.052C59.3424 104.273 50.5932 103.28 44.6558 102.767C35.7173 101.967 19.2973 99.3962 15.0745 98.1651C13.9225 97.7946 35.0985 97.7031 56.2786 97.994ZM65.5164 48.244C66.032 48.7486 64.2255 58.9659 63.5944 59.6098C63.4051 59.803 62.8277 59.4903 62.3121 58.9857C61.7966 58.4811 61.9618 55.9934 62.828 53.4348C64.2435 48.5121 64.8075 47.5502 65.5164 48.244ZM68.8543 50.2492C69.1766 50.5646 69.0757 53.1153 68.6593 55.9879C67.4021 63.8411 67.4035 63.9686 65.9212 62.5179C65.0189 61.6348 64.9976 59.5953 65.9793 55.8882C67.3881 50.3281 67.9521 49.3661 68.8543 50.2492ZM99.6069 20.5465C99.8687 21.1812 99.8617 26.5993 99.5418 32.5942C99.2219 38.5892 98.871 47.7079 98.7338 52.8723C98.5966 58.0368 98.3585 65.7519 98.0844 70.0254C97.8102 74.2989 97.6326 81.6948 97.6203 86.603C97.7355 91.5099 97.5862 95.5271 97.3942 95.4654C97.2667 95.4667 95.2674 93.3839 93.1353 90.7925C89.196 86.1802 89.196 86.1802 90.4302 82.2154C91.1728 80.0406 91.8981 76.2086 92.191 73.7196C92.4194 71.1676 93.5477 63.1883 94.684 55.9738C95.8203 48.7593 97.2348 37.6537 97.8058 31.2736C98.4412 24.9567 99.0242 19.7238 99.0229 19.5964C99.086 19.532 99.4095 19.9748 99.6069 20.5465ZM24.6975 103.42C27.1909 103.968 34.7262 104.782 41.4304 105.414C55.349 106.672 60.2042 107.387 61.1065 108.27C61.4287 108.586 59.8643 111.47 57.6003 114.553C54.1439 119.497 40.78 140.733 38.2165 145.668C37.4659 147.078 37.145 146.89 34.4288 143.349C30.4842 138.227 26.0617 130.113 23.6303 123.318C21.4622 117.285 18.8351 103.99 19.6556 103.153C19.9712 102.831 22.2054 102.999 24.6975 103.42ZM71.9371 52.257C72.1963 52.6368 71.9141 56.1455 71.3795 59.9118C70.6071 65.3378 70.1103 66.6177 69.208 65.7347C68.5635 65.1039 68.6604 62.1708 69.3883 58.5938C70.7273 52.4608 71.2846 50.8615 71.9371 52.257ZM109.028 18.6643C117.778 19.7849 127.633 22.8701 135.906 27.0552C145.909 32.051 149.31 33.9918 148.868 34.4426C147.416 35.9237 110.363 60.8472 109.534 60.9195C108.451 60.9945 106.556 44.5051 105.69 28.8974C105.598 26.1575 105.245 22.9103 104.912 21.5752C104.305 18.4582 104.748 18.1349 109.028 18.6643ZM35.1309 94.7069C35.1403 95.5992 33.0389 95.9396 32.2655 95.1827C31.8788 94.8043 32.2575 94.4179 33.3411 94.343C34.3602 94.2049 35.1282 94.452 35.1309 94.7069ZM75.6657 55.0231C75.8671 55.9771 73.7664 68.5559 73.2615 69.071C73.0722 69.2642 72.5593 69.0146 72.1081 68.573C71.2059 67.69 73.4932 54.6631 74.7017 54.3319C75.083 54.2005 75.5328 54.5145 75.6657 55.0231ZM38.759 93.9682C39.0812 94.2836 39.151 94.8565 38.7723 95.2429C38.4568 95.5649 37.819 95.5715 37.4968 95.2561C37.1101 94.8777 37.1678 94.3034 37.4834 93.9814C37.8621 93.5951 38.3723 93.5898 38.759 93.9682ZM42.9724 94.3071C43.488 94.8117 43.4933 95.3216 42.9213 95.5187C42.4124 95.6515 41.4524 95.3427 40.9368 94.8381C40.4212 94.3335 40.479 93.7592 40.9879 93.6265C41.5599 93.4293 42.4568 93.8025 42.9724 94.3071ZM102.528 31.4798C102.85 31.7951 102.857 32.4325 102.478 32.8188C102.163 33.1408 101.714 32.9542 101.581 32.4457C101.384 31.874 101.442 31.2998 101.631 31.1066C101.757 30.9778 102.141 31.1013 102.528 31.4798ZM78.4947 57.161C78.817 57.4764 78.6006 61.1757 77.9438 65.4531C77.1137 71.4534 76.555 72.9252 75.7172 72.1052C75.0083 71.4114 75.1024 68.2234 75.8264 64.2639C77.0929 57.303 77.528 56.2149 78.4947 57.161ZM46.4769 93.9521C47.1859 94.646 47.3201 95.282 46.7481 95.4791C46.2392 95.6119 45.2792 95.3031 44.7636 94.7985C44.248 94.2939 44.1769 93.5935 44.4924 93.2715C44.8711 92.8852 45.7036 93.1952 46.4769 93.9521ZM102.85 37.8506C102.859 38.7428 102.608 39.1279 102.222 38.7494C101.835 38.371 101.509 37.6732 101.568 37.2264C101.499 36.7809 101.814 36.3315 102.196 36.3275C102.516 36.388 102.842 37.0857 102.85 37.8506ZM81.7682 59.1032C82.0904 59.4185 82.1762 61.5211 81.8807 63.7551C81.5852 65.9891 81.2399 69.5622 81.0706 71.6674C80.7347 76.1328 80.297 76.966 79.0658 75.1302C78.612 74.4337 78.6363 70.6727 79.2327 66.7146C80.3664 59.2452 80.6726 58.0309 81.7682 59.1032ZM50.2393 93.8495C50.9482 94.5433 51.2758 95.3686 50.8971 95.7549C50.5815 96.0769 49.6859 95.8312 48.977 95.1374C48.2681 94.4436 48.0036 93.5539 48.3192 93.2319C48.6979 92.8456 49.5303 93.1557 50.2393 93.8495ZM102.756 41.0386C103.147 41.7994 103.537 42.5603 103.666 42.6865C103.795 42.8126 103.671 43.1963 103.356 43.5183C103.04 43.8403 102.334 43.4014 101.815 42.5144C101.295 41.6274 101.157 40.6089 101.472 40.287C101.851 39.9006 102.365 40.2777 102.756 41.0386ZM54.1305 93.873C54.8394 94.5668 55.0381 95.2659 54.4016 95.4C53.8927 95.5327 53.1865 95.0939 52.9233 94.3317C52.0117 92.5564 52.5193 92.2961 54.1305 93.873ZM85.6293 68.4332C85.3512 72.3243 84.9508 76.7266 84.9024 78.1932L84.7398 80.9357L83.1286 79.3588C81.8397 78.0973 81.8183 76.0578 82.8955 69.2901C83.6128 64.6933 84.7221 60.9849 85.2336 61.1071C85.8083 61.1649 85.9706 64.4777 85.6293 68.4332ZM101.966 44.8075C103.126 45.9428 104.765 50.1966 104.063 50.1401C102.98 50.215 100.124 45.5277 100.818 44.8194C101.134 44.4974 101.644 44.4921 101.966 44.8075ZM58.799 95.0358C59.2542 95.8597 58.6124 95.4839 57.3879 94.2855C56.1634 93.0871 55.774 92.4537 56.5434 92.8282C57.3141 93.3302 58.3452 94.3394 58.799 95.0358ZM62.1626 93.4075C63.2569 94.3523 63.9054 95.3655 63.3978 95.6257C62.9534 95.8215 62.3787 95.7637 62.1209 95.5114C61.9262 95.1947 60.9595 94.2486 59.9928 93.3025C57.7372 91.0948 59.4599 91.1408 62.1626 93.4075ZM89.2818 63.9336C89.9263 64.5643 90.0281 68.1965 89.4304 72.0272C88.0657 81.7937 87.3955 84.7965 86.5577 83.9765C86.0421 83.4719 87.3684 63.9534 88.06 62.9901C88.1231 62.9257 88.7018 63.3659 89.2818 63.9336ZM103.513 52.3767C105.324 54.7802 105.475 57.0733 103.606 55.2441C101.737 53.4149 100.304 50.4977 101.068 50.3623C101.449 50.2309 102.606 51.1113 103.513 52.3767ZM65.2885 93.4389C66.513 94.6374 67.1628 95.778 66.717 95.8463C65.8899 96.0461 62.2111 91.941 62.716 91.4258C62.8422 91.297 63.9996 92.1774 65.2885 93.4389ZM105.63 59.6213C105.64 60.6411 104.871 60.2666 103.066 58.5005C99.6507 55.1575 99.632 53.373 102.978 56.143C104.458 57.3388 105.622 58.8565 105.63 59.6213ZM71.4086 93.1207C75.1466 96.779 72.7297 97.4414 68.5459 93.8514C65.5854 91.3324 65.4538 90.9513 66.9832 90.808C68.1298 90.6687 69.8619 91.6069 71.4086 93.1207ZM103.802 61.7437C105.225 63.6412 106.268 65.7976 106.278 66.6899C106.291 67.9646 105.712 67.5244 103.513 64.615C100.475 60.7582 100.082 59.7424 100.839 58.9697C101.091 58.7121 102.443 59.9093 103.802 61.7437ZM77.0252 93.445C79.0298 96.0377 79.1627 96.5463 77.8226 96.4964C76.8008 96.3795 75.1937 95.185 73.7705 93.2875C71.8304 90.7579 71.633 90.1862 72.9731 90.2361C74.1211 90.2243 75.4718 91.2939 77.0252 93.445ZM103.347 66.9752C106.71 71.4023 107.427 72.8609 106.733 73.5693C105.975 74.342 105.523 73.773 102.348 69.0252C99.1723 64.2775 100.111 62.5468 103.347 66.9752ZM81.1622 92.5736C83.0956 94.4659 84.4544 96.3003 84.1388 96.6223C83.2552 97.5238 82.0992 96.7709 79.1293 93.3595C75.3833 88.9364 76.9087 88.4107 81.1622 92.5736ZM103.413 73.3486C107.098 77.9636 108.53 80.7534 107.52 81.7837C107.205 82.1057 106.303 81.2227 105.394 79.7023C104.614 78.308 102.994 75.9664 101.896 74.6391C99.8298 72.2383 98.8497 70.0175 99.5439 69.3092C99.7333 69.116 101.475 70.9465 103.413 73.3486ZM85.3756 92.9125C87.7602 95.2463 88.8611 96.8284 88.2247 96.9625C87.7158 97.0952 85.5957 95.6511 83.6623 93.7589C81.7289 91.8666 80.4977 90.0308 80.8132 89.7089C81.1919 89.3225 83.1844 90.768 85.3756 92.9125ZM89.2669 92.936C92.0381 95.6482 92.8799 96.8506 91.8594 96.8612C90.7114 96.873 84.3876 89.9269 85.0187 89.2829C85.1449 89.1542 87.0756 90.7915 89.2669 92.936ZM117.434 59.9455C120.794 58.0622 128.079 53.2063 133.651 49.3242C142.769 42.8558 165.074 28.7295 166.094 28.719C166.349 28.7163 154.296 41.143 139.465 56.2756C124.571 71.4726 111.943 83.8415 111.497 83.9098C110.03 83.8613 108.812 65.0064 110.207 64.2271C110.841 63.8381 114.137 61.8918 117.434 59.9455ZM72.8646 110.316C76.1865 110.791 79.8923 111.39 81.0417 111.506C82.8946 111.806 82.9604 111.996 81.9507 113.026C81.1289 113.736 77.9399 113.769 73.274 112.861C65.2231 111.542 64.6471 111.357 65.9093 110.069C66.3524 109.746 69.4783 109.777 72.8646 110.316ZM105.419 82.1242C109.301 87.3108 109.758 88.3897 107.845 88.4095C106.825 88.42 101.582 81.144 99.6241 76.9573C98.3836 74.2293 101.86 77.2529 105.419 82.1242ZM68.154 117.312C72.0505 117.846 75.4382 118.512 75.6315 118.701C75.8249 118.89 75.5133 119.595 74.8191 120.303C73.62 121.526 60.2654 119.306 60.3138 117.84C60.2346 116.374 61.1907 116.301 68.154 117.312ZM71.9487 114.213C76.4843 114.868 79.3631 115.667 78.8582 116.182C78.4164 116.632 74.5239 116.481 70.3078 115.888C66.0272 115.231 62.9564 114.37 63.3982 113.919C63.84 113.469 67.6681 113.557 71.9487 114.213ZM92.6425 92.4549C95.027 94.7887 96.5791 96.8124 96.2004 97.1987C95.8218 97.5851 93.7648 96.0766 91.3803 93.7428C88.9957 91.409 87.4436 89.3853 87.8223 88.999C88.201 88.6126 90.2579 90.1211 92.6425 92.4549ZM64.75 121.172C72.6746 122.62 72.5471 122.621 71.0955 124.102C70.212 125.004 68.1066 124.962 64.3322 123.917C61.3259 123.12 58.5734 122.192 58.1867 121.813C56.7044 120.363 58.9347 120.148 64.75 121.172ZM61.8535 124.771C68.3093 126.043 68.8866 126.356 67.2457 128.03C66.0466 129.254 55.7561 127.257 55.2929 125.668C54.8298 124.079 56.4854 123.807 61.8535 124.771ZM58.1313 128.698C63.0563 129.986 64.5977 130.99 62.8199 131.773C61.551 132.423 54.389 130.713 53.229 129.577C51.6822 128.064 53.9112 127.722 58.1313 128.698ZM103.029 85.336C106.72 90.5883 106.101 92.3795 102.285 87.3834C100.086 84.474 98.6464 81.0469 99.6668 81.0363C99.922 81.0337 101.41 82.9943 103.029 85.336ZM56.1909 132.224L60.795 133.324L59.3435 134.805C58.3337 135.835 56.995 135.913 54.6265 135.108C50.6575 133.747 49.7565 132.992 50.8294 131.897C51.2081 131.511 53.6975 131.676 56.1909 132.224ZM53.234 136.143C55.3447 136.695 56.7559 137.445 56.5035 137.702C55.7461 138.475 48.9668 136.761 48.9574 135.868C49.0166 135.421 49.077 135.102 49.2046 135.101C49.3966 135.163 51.1877 135.654 53.234 136.143ZM51.2185 138.586C55.1875 139.947 54.7524 141.035 50.5953 139.995C47.3339 139.2 46.6277 138.761 47.385 137.988C47.7006 137.666 49.426 137.967 51.2185 138.586ZM48.0292 144.674C48.4803 145.116 48.4883 145.881 47.9834 146.396C47.0368 147.362 43.7042 145.866 43.3686 144.276C43.037 143.069 46.7402 143.413 48.0292 144.674ZM49.1371 140.838C52.467 142.079 52.2252 143.356 48.8403 142.945C45.4553 142.534 44.6846 142.032 45.8206 140.873C46.3255 140.357 47.7931 140.406 49.1371 140.838ZM102.568 90.0576C103.218 91.1982 103.548 92.2784 103.233 92.6004C102.665 93.1799 101.178 91.3468 99.7443 88.4295C98.7656 86.3362 101.141 87.7777 102.568 90.0576ZM42.0176 149.262C43.9403 150.134 43.7657 151.73 41.9114 151.303C39.802 150.878 39.2206 150.183 39.978 149.411C40.3566 149.024 41.2495 149.015 42.0176 149.262ZM45.9639 148.456C45.9074 149.158 43.0958 148.677 42.258 147.857C41.8713 147.479 42.5722 147.408 43.786 147.586C44.9354 147.702 45.8967 148.138 45.9639 148.456ZM40.6438 152.081C41.5407 152.454 41.6092 152.899 41.0385 153.224C39.7696 153.875 37.7824 152.939 38.6029 152.102C38.9184 151.78 39.8745 151.706 40.6438 152.081ZM36.2314 157.098C36.5536 157.414 36.6234 157.987 36.2447 158.373C35.9292 158.695 35.2914 158.701 34.9691 158.386C34.5825 158.008 34.6402 157.433 34.9558 157.111C35.3344 156.725 35.8447 156.72 36.2314 157.098ZM38.4403 154.844C38.9518 154.967 39.1478 155.411 38.8323 155.733C38.4536 156.119 37.8158 156.126 37.4936 155.81C37.1069 155.432 36.9753 155.051 37.1016 154.922C37.2909 154.729 37.8642 154.659 38.4403 154.844ZM100.739 92.0525C101.13 92.8133 101.52 93.5742 101.649 93.7003C101.778 93.8265 101.465 94.4034 100.961 94.9185C99.8245 96.0776 98.988 95.3851 98.9666 93.3456C98.9439 91.1787 99.9564 90.4033 100.739 92.0525ZM55.088 142.625C69.3565 128.582 82.1089 115.957 83.4987 114.668C84.761 113.38 86.0272 112.474 86.2205 112.664C86.4139 112.853 86.9682 117.054 87.403 122.021C87.9787 128.262 87.7543 131.196 86.8036 131.78C86.0436 132.298 81.0404 135.728 75.5942 139.481C70.211 143.17 61.0869 149.001 55.3184 152.439C49.6774 155.876 41.124 161.382 36.4364 164.49C31.7502 167.726 27.8186 169.933 27.6856 169.425C27.6172 168.979 27.867 168.467 28.2483 168.336C28.6941 168.267 40.8195 156.668 55.088 142.625ZM94.1185 111.562C95.6652 113.076 96.8951 114.784 96.7097 115.36C96.5889 115.998 95.1119 115.058 92.8562 112.85C90.6006 110.642 89.6285 109.186 90.265 109.052C90.837 108.855 92.5717 110.048 94.1185 111.562ZM94.7229 108.369C95.9474 109.567 96.7261 110.834 96.3474 111.22C96.0319 111.542 94.6851 110.855 93.4606 109.657C92.2361 108.458 91.5205 107.127 91.8361 106.805C92.2148 106.419 93.4984 107.17 94.7229 108.369ZM96.8984 102.928C97.2206 103.244 97.2273 103.881 96.8486 104.267C96.5331 104.589 96.0846 104.403 95.9517 103.894C95.7543 103.322 95.8121 102.748 96.0014 102.555C96.1277 102.426 96.5117 102.55 96.8984 102.928ZM110.087 89.3424C110.41 89.6578 114.499 90.3804 119.097 90.8428C123.694 91.3052 135.96 93.0906 146.439 94.767C156.854 96.5078 168.479 98.0448 172.31 98.3877C176.076 98.6674 179.398 99.143 179.591 99.3322C180.429 100.152 172.072 100.047 159.304 99.0321C152.219 98.5317 141.943 97.9368 136.52 97.8016C131.224 97.6652 123.693 97.2331 119.862 96.8903C116.031 96.5475 110.479 96.2862 107.544 96.189L102.313 96.1157L105.91 92.4452C107.866 90.449 109.765 89.027 110.087 89.3424ZM125.033 85.1722C131.546 85.7422 135.19 86.5332 134.878 87.2376C134.565 87.8145 133.357 88.1457 132.206 87.9026C131.055 87.6595 126.521 87.1328 122.179 86.6677C114.708 85.9164 112.213 85.241 113.991 84.4577C114.308 84.2632 119.35 84.5298 125.033 85.1722ZM136.61 69.882C145.366 71.5125 145.366 71.5125 144.23 72.6716C143.22 73.7019 128.714 71.2385 128.638 70.0282C128.622 68.4986 129.452 68.5537 136.61 69.882ZM139.694 65.9619C146.977 67.0339 148.066 67.4689 146.741 68.8211C145.92 69.6583 133.336 67.9399 132.176 66.8046C130.694 65.3538 133.37 65.0712 139.694 65.9619ZM142.967 61.7211C148.975 62.9338 150.962 63.8694 149.186 64.7802C147.98 65.3663 136.801 63.7609 135.898 62.8778C134.352 61.3641 137.854 60.7542 142.967 61.7211ZM146.301 57.2885C152.307 58.2463 153.012 58.5577 151.497 60.1031C150.866 60.7471 148.06 60.7761 145.119 60.1691C139.047 59.0208 138.791 58.896 140.116 57.5437C140.621 57.0286 143.363 56.9365 146.301 57.2885ZM149.392 54.0058C151.95 54.6167 154 55.4879 154.004 55.8703C154.073 56.3158 153.82 56.5734 153.565 56.576C153.31 56.5786 150.947 56.2844 148.456 55.9914C143.155 55.3451 142.578 55.0323 143.84 53.7445C144.345 53.2293 146.834 53.3948 149.392 54.0058ZM152.98 49.443C158.217 50.0263 158.665 50.2129 156.961 51.9515C155.888 53.0462 148.547 52.5484 147.258 51.2869C145.905 49.9624 149.02 48.974 152.98 49.443ZM155.813 45.908C159.649 46.7607 160.356 47.1996 159.535 48.0367C158.967 48.6162 152.385 47.4732 151.547 46.6532C150.452 45.5809 152.744 45.1748 155.813 45.908ZM96.2335 106.441C96.5598 107.139 96.1771 107.143 95.4682 106.449C94.6961 105.819 94.4988 105.248 94.9459 105.307C95.3286 105.303 95.9717 105.806 96.2335 106.441ZM106.523 102.255C110.325 105.976 110.908 106.799 109.506 106.941C108.678 107.013 107.396 106.389 106.621 105.505C105.911 104.684 104.297 102.852 103.006 101.463C98.6858 96.9818 101.818 97.6505 106.523 102.255ZM127.736 81.3835C137.255 82.7511 137.958 82.9351 136.759 84.1585C136.254 84.6737 134.596 84.6908 132.934 84.3256C131.335 83.8959 127.056 83.3665 123.48 83.021C118.5 82.5626 117.283 82.129 118.231 81.2905C118.862 80.6466 122.881 80.6688 127.736 81.3835ZM123.921 76.3874C124.243 76.7027 127.439 77.3071 131.143 77.7787C137.53 78.6051 140.028 79.5354 138.829 80.7588C138.513 81.0808 136.982 81.0966 135.383 80.667C133.785 80.3648 130.081 79.8932 127.081 79.733C120.824 79.1603 120.439 78.9093 122.143 77.1707C122.837 76.4623 123.663 76.1351 123.921 76.3874ZM129.051 72.956C135.816 73.2685 143.624 75.7374 141.211 76.7823C140.45 77.1726 125.505 75.4149 124.925 74.8472C124.152 74.0903 126.691 72.9167 129.051 72.956ZM159.349 42.4294C162.417 43.0351 162.867 43.3491 161.794 44.4438C161.352 44.8946 159.566 44.913 157.967 44.4834C155.409 43.8724 155.024 43.6214 155.781 42.8487C156.286 42.3336 157.879 42.1259 159.349 42.4294ZM162.115 38.5763C164.606 38.8692 165.315 39.5631 164.431 40.4646C163.674 41.2373 160.164 41.0824 159.199 40.2637C158.296 39.3807 160.199 38.3411 162.115 38.5763ZM164.959 36.061C166.11 36.304 166.816 36.7429 166.5 37.0649C165.869 37.7088 163.063 37.7379 162.419 37.1071C161.452 36.161 162.85 35.6366 164.959 36.061ZM168.556 32.3905C169.974 33.7782 167.886 35.3933 166.28 34.3263C165.189 33.6364 165.183 33.1265 166.26 32.4143C167.02 31.8965 168.041 31.8859 168.556 32.3905ZM102.981 105.096C105.559 107.619 106.273 108.823 105.642 109.467C104.695 110.433 104.104 114.901 103.647 126.06C103.159 134.288 101.067 159.87 100.189 167.337C98.7822 179.207 98.3057 176.344 98.4129 156.137C98.5837 123.754 98.8682 102.207 99.3099 101.756C99.3731 101.692 101.047 103.204 102.981 105.096ZM172.028 28.8489C172.35 29.1642 172.42 29.7372 172.104 30.0591C171.725 30.4455 170.961 30.5809 170.45 30.4587C169.874 30.2734 169.868 29.7635 170.373 29.2484C170.941 28.6689 171.641 28.4704 172.028 28.8489ZM94.1719 116.661C95.7831 118.238 96.8196 119.757 96.4409 120.143C95.7467 120.851 90.8527 116.44 90.9025 115.101C90.8233 113.636 91.2073 113.759 94.1719 116.661ZM110.414 102.279C112.799 104.612 113.9 106.194 113.197 106.138C112.177 106.149 105.661 99.1406 106.166 98.6255C106.292 98.4967 108.223 100.134 110.414 102.279ZM56.6274 155.612C59.6741 154.179 76.8481 143.484 82.5481 139.6C85.0806 137.789 87.6815 136.424 88.1286 136.483C89.1518 136.727 90.3599 142.452 91.6806 152.828C92.1678 156.711 93.0684 163.522 93.6886 167.914C94.3087 172.306 94.6039 176.127 94.3514 176.385C93.4679 177.286 75.5656 173.264 69.4805 170.841C62.626 168.044 54.2208 163.35 51.8363 161.016C50.4829 159.692 50.4789 159.309 52.4433 158.078C53.5833 157.301 55.486 156.262 56.6274 155.612ZM114.622 102.108C116.046 104.005 116.762 105.464 116.252 105.469C114.848 105.356 109.484 98.7186 110.759 98.7054C111.397 98.6988 113.136 100.274 114.622 102.108ZM95.1787 121.431C96.2099 122.44 96.9886 123.707 96.8032 124.283C96.6824 124.921 95.5277 124.296 93.9165 122.719C92.3053 121.142 91.6555 120.001 92.2919 119.867C92.864 119.67 94.1476 120.422 95.1787 121.431ZM116.126 99.5423C116.517 100.303 117.746 101.884 118.97 103.082C120.259 104.344 120.907 105.357 120.399 105.49C119.318 105.82 114.085 99.5634 114.843 98.7907C115.221 98.4043 115.736 98.7815 116.126 99.5423ZM164.266 49.0076C165.619 50.3322 169.97 57.7449 171.67 61.6793C175.463 70.5639 180.678 93.4568 179.163 95.0023C178.595 95.5818 168.055 94.0973 147.542 90.5486L137.829 88.8643L144.547 78.66C148.252 73.0762 152.645 66.1467 154.337 63.2609C160.354 53.1275 163.621 48.3769 164.266 49.0076ZM94.6535 126.09C97.1038 128.614 97.1696 128.804 94.9864 127.425C93.6383 126.61 92.3507 125.476 92.0258 124.906C91.0484 122.94 92.0098 123.376 94.6535 126.09ZM122.397 101.39C123.75 102.714 124.851 104.296 124.666 104.872C124.545 105.511 123.197 104.696 121.134 102.678C119.072 100.659 118.229 99.3293 118.865 99.1953C119.437 98.9981 121.043 100.065 122.397 101.39ZM94.95 130.038C96.1745 131.237 96.9532 132.504 96.5745 132.89C96.259 133.212 94.9123 132.525 93.6878 131.326C92.4633 130.128 91.7477 128.797 92.0632 128.475C92.4419 128.088 93.7255 128.84 94.95 130.038ZM110.392 112.35C110.908 112.854 109.46 126.829 108.425 131.62C107.573 135.453 107.329 130.42 108.006 121.999C108.802 112.813 109.168 111.151 110.392 112.35ZM124.715 109.588L131.791 109.196L135.748 115.466C137.889 118.95 142.172 125.917 145.16 130.985C152.106 142.578 166.435 164.676 167.917 166.126C168.497 166.694 168.76 167.456 168.381 167.843C167.75 168.486 146.414 147.226 124.485 124.124L111.908 110.932L114.774 110.456C116.366 110.248 120.827 109.82 124.715 109.588ZM126.546 101.666C127.77 102.864 128.549 104.131 128.17 104.517C127.855 104.839 126.508 104.152 125.284 102.953C124.059 101.755 123.343 100.424 123.659 100.102C124.038 99.7155 125.321 100.467 126.546 101.666ZM94.6812 134.822C95.7124 135.831 96.3622 136.972 96.0466 137.294C95.5417 137.809 92.7074 135.161 92.1825 133.764C91.7891 132.748 93.07 133.245 94.6812 134.822ZM130.372 101.626C131.597 102.824 132.376 104.091 131.997 104.478C131.681 104.799 130.335 104.112 129.11 102.914C127.886 101.715 127.17 100.384 127.486 100.062C127.864 99.6759 129.148 100.428 130.372 101.626ZM113.582 118.5C112.227 129.159 111.503 133.118 110.935 133.698C110.05 134.472 110.487 127.456 111.634 121.261C112.661 115.832 114.169 113.649 113.582 118.5ZM95.3658 139.277C96.0747 139.97 96.4023 140.796 96.0867 141.118C95.7712 141.44 95.0649 141.001 94.5453 140.114C94.0257 139.227 93.6981 138.401 93.8244 138.273C93.9506 138.144 94.6568 138.583 95.3658 139.277ZM134.97 102.088C135.876 103.354 135.947 104.054 135.182 104.062C133.779 104.077 131.574 100.657 132.847 100.389C133.292 100.193 134.257 101.012 134.97 102.088ZM115.776 126.955C114.586 135.126 114.093 136.788 113.375 135.202C112.723 133.934 115.312 119.183 116.202 118.919C116.583 118.787 116.43 122.422 115.776 126.955ZM95.9899 144.051C96.2517 144.685 95.8032 144.499 94.901 143.616C93.9987 142.733 93.8027 142.289 94.3787 142.474C94.956 142.787 95.7294 143.544 95.9899 144.051ZM139.05 101.919C140.725 103.431 140.546 104.644 138.623 103.772C137.277 103.084 135.718 100.423 136.674 100.35C137.121 100.409 138.213 101.099 139.05 101.919ZM96.03 147.875C96.3562 148.573 95.9735 148.577 95.2646 147.883C94.4926 147.253 94.2952 146.682 94.7423 146.741C95.125 146.737 95.7682 147.24 96.03 147.875ZM119.673 121.433C119.995 121.748 117.732 137.069 117.353 137.456C116.091 138.744 115.992 135.366 117.077 129.363C118.347 122.785 118.964 120.739 119.673 121.433ZM142.484 100.863C143.386 101.746 143.843 102.698 143.464 103.084C143.148 103.406 142.124 103.034 141.222 102.151C140.319 101.268 139.926 100.252 140.242 99.9304C140.62 99.544 141.582 99.9802 142.484 100.863ZM113.812 140.424C116.892 142.177 120.938 144.749 122.864 146.004C131.792 151.839 144.44 159.676 145.785 160.236C148.092 161.232 145.753 163.232 136.873 168.041C132.179 170.512 126.206 172.741 120.607 174.073C110.236 176.539 103.549 177.564 102.776 176.807C102.453 176.492 102.737 173.111 103.335 169.28C103.932 165.449 104.924 156.579 105.489 149.689C106.054 142.672 106.951 136.99 107.398 137.049C107.845 137.108 110.731 138.544 113.812 140.424ZM96.07 151.699C96.3963 152.397 96.0136 152.401 95.3047 151.707C94.5327 151.077 94.3353 150.506 94.7824 150.565C95.1651 150.561 95.8083 151.064 96.07 151.699ZM121.942 124.915C122.264 125.23 122.103 128.1 121.753 131.291C120.561 139.207 120.379 140.165 119.794 139.088C119.403 138.327 120.736 125.501 121.3 124.539C121.299 124.412 121.619 124.6 121.942 124.915ZM145.294 107.272C149.879 106.587 157.907 105.739 163.198 105.366C168.551 104.928 174.606 104.419 176.707 104.079L180.528 103.529L179.146 111.639C178.491 116.044 177.399 121.409 176.718 123.392C175.239 128.38 169.788 137.678 164.812 143.785L160.846 148.734L156.633 142.34C154.299 138.795 149.627 131.194 146.313 125.428C142.937 119.726 139.302 113.772 138.138 112.254C136.973 110.609 136.256 109.15 136.508 108.893C136.761 108.635 140.707 107.829 145.294 107.272ZM147.331 100.813C148.102 101.315 148.237 102.079 147.669 102.658C147.038 103.302 146.08 103.121 145.306 102.364C143.759 100.85 145.404 99.5583 147.331 100.813ZM96.439 156.476C96.4484 157.368 96.1973 157.753 95.8106 157.375C94.9083 156.491 94.8923 154.962 95.7852 154.953C96.1048 155.013 96.431 155.711 96.439 156.476ZM151.413 100.771C151.929 101.276 152.127 101.975 151.749 102.361C151.433 102.683 150.666 102.563 150.151 102.059C149.635 101.554 149.5 100.791 149.815 100.469C150.194 100.082 150.897 100.266 151.413 100.771ZM125.035 127.943C125.422 128.321 125.06 136.42 124.462 140.251C124.225 141.91 124.035 142.103 123.198 141.283C122.682 140.779 122.585 137.657 122.998 134.401C123.639 128.594 124.133 127.06 125.035 127.943ZM155.626 101.11C156.013 101.488 155.825 101.809 155.253 102.006C154.744 102.139 153.913 101.956 153.591 101.641C153.204 101.262 153.455 100.877 153.964 100.745C154.536 100.547 155.304 100.794 155.626 101.11ZM128.26 131.351C129.042 132.873 127.624 143.724 126.663 143.287C126.15 143.038 126.009 141.764 126.123 140.488C126.365 139.211 126.594 136.659 126.702 134.873C126.923 131.556 127.608 129.956 128.26 131.351ZM161.624 101.303L164.498 101.592L161.885 101.81C160.355 101.953 158.887 101.777 158.564 101.462C158.178 101.083 158.112 100.893 158.367 100.89C158.559 100.952 160.028 101.128 161.624 101.303ZM131.082 138.907C130.819 144.201 130.202 146.247 129.355 144.534C128.834 143.52 129.957 135.031 130.778 134.194C131.156 133.807 131.307 135.973 131.082 138.907ZM134.122 136.836C135.024 137.719 133.844 146.783 132.886 146.729C132.376 146.734 132.233 145.206 132.405 143.355C132.64 141.441 132.809 139.336 132.738 138.635C132.722 137.106 133.413 136.142 134.122 136.836ZM137.28 139.927C138.055 140.811 136.357 149.243 135.464 149.252C134.954 149.257 134.82 148.621 135.066 147.726C135.311 146.831 135.61 144.852 135.721 143.321C135.945 140.387 136.507 139.17 137.28 139.927ZM140.156 146.526C139.816 150.609 139.32 152.017 138.354 151.07C137.58 150.314 138.901 142.396 139.73 142.451C140.176 142.383 140.324 144.293 140.156 146.526ZM143.145 145.667C143.918 146.423 142.84 153.064 141.882 153.01C141.5 153.014 141.228 151.487 141.4 149.637C141.746 146.064 142.243 144.784 143.145 145.667ZM145.801 149.527C146.123 149.843 146.137 151.245 145.834 152.714C145.41 154.822 145.158 155.207 144.45 154.513C143.934 154.009 143.856 152.671 144.29 151.455C145.155 148.769 145.092 148.834 145.801 149.527ZM148.314 151.987C148.572 152.24 148.584 153.387 148.341 154.537C147.79 156.773 146.83 156.464 146.805 154.043C146.786 152.258 147.541 151.23 148.314 151.987ZM150.956 154.573C151.279 154.889 151.288 155.781 150.913 156.55C149.979 158.663 149.597 158.794 149.45 156.884C149.238 154.91 150.054 153.69 150.956 154.573ZM153.6 157.287C153.114 159.587 152.162 160.043 152.014 158.132C151.94 157.177 152.314 156.28 152.823 156.148C153.459 156.014 153.783 156.456 153.6 157.287ZM156.485 158.723C157.001 159.228 157.01 160.12 156.505 160.635C155.496 161.665 154.47 161.166 154.518 159.7C154.439 158.234 155.454 157.714 156.485 158.723ZM161.063 163.329C164.028 166.358 164.093 166.421 161.399 165.046C159.861 164.297 158.381 163.102 158.055 162.404C156.88 159.866 158.032 160.237 161.063 163.329Z" fill="white"/>
<path d="M10.2108 181.844C9.72863 184.526 11.3452 186.613 13.8306 186.396C15.1679 186.191 15.7359 185.611 16.4154 183.501C17.467 180.367 15.8504 178.28 12.7957 178.949C10.8863 179.351 10.5721 179.801 10.2108 181.844ZM14.9345 182.178C15.4567 183.32 15.2056 183.705 14.1852 183.715C13.4198 183.723 12.5202 183.095 12.1282 182.207C11.6059 181.065 11.857 180.68 12.8775 180.669C13.6429 180.661 14.5425 181.289 14.9345 182.178Z" fill="white"/>
<path d="M185.727 9.20234C185.249 12.2669 188.345 15.5494 190.629 14.3784C191.453 13.9237 192.522 12.4466 193.082 11.1023C194.135 8.09553 191.294 4.81037 188.433 5.66859C186.017 6.45847 186.206 6.26528 185.727 9.20234ZM190.77 9.59638C191.475 9.9078 191.48 10.4177 190.782 10.7436C190.212 11.0682 189.191 11.0788 188.614 10.766C187.909 10.4546 187.903 9.94473 188.602 9.6188C189.172 9.2942 190.193 9.28364 190.77 9.59638Z" fill="white"/>
<path d="M179.646 183.661C179.655 184.554 180.307 185.822 181.144 186.642C183.916 189.354 188.9 184.139 186.634 180.912C184.754 178.063 179.609 180.092 179.646 183.661ZM184.748 183.609C184.768 185.521 183.365 185.535 182.452 183.632C181.93 182.49 182.054 182.107 183.202 182.095C184.35 182.083 184.736 182.461 184.748 183.609Z" fill="white"/>
</svg>
